<svg width="17" height="16" viewBox="0 0 17 16" fill="none" xmlns="http://www.w3.org/2000/svg">
<path d="M8 0C3.6 0 0 3.6 0 8C0 11.5 2.3 14.5 5.5 15.6C5.9 15.7 6 15.4 6 15.2C6 15 6 14.4 6 13.7C3.8 14.2 3.3 12.8 3.3 12.8C2.9 11.9 2.4 11.6 2.4 11.6C1.7 11.1 2.5 11.1 2.5 11.1C3.3 11.2 3.7 11.9 3.7 11.9C4.4 13.2 5.6 12.8 6 12.6C6.1 12.1 6.3 11.7 6.5 11.5C4.7 11.3 2.9 10.6 2.9 7.5C2.9 6.6 3.2 5.9 3.7 5.4C3.6 5.2 3.3 4.4 3.8 3.3C3.8 3.3 4.5 3.10001 6 4.10001C6.6 3.90001 7.3 3.8 8 3.8C8.7 3.8 9.4 3.90001 10 4.10001C11.5 3.10001 12.2 3.3 12.2 3.3C12.6 4.4 12.4 5.2 12.3 5.4C12.8 6 13.1 6.7 13.1 7.5C13.1 10.6 11.2 11.2 9.4 11.4C9.7 11.8 10 12.3 10 13C10 14.1 10 14.9 10 15.2C10 15.4 10.1 15.7 10.6 15.6C13.8 14.5 16.1 11.5 16.1 8C16 3.6 12.4 0 8 0Z" fill="white"/>
</svg>
