<svg width="16" height="16" viewBox="0 0 16 16" fill="none" xmlns="http://www.w3.org/2000/svg">
<path d="M14.5 0H1.5C0.7 0 0 0.7 0 1.5V14.5C0 15.3 0.7 16 1.5 16H14.5C15.3 16 16 15.3 16 14.5V1.5C16 0.7 15.3 0 14.5 0ZM11 2.5C11 2.2 11.2 2 11.5 2H13.5C13.8 2 14 2.2 14 2.5V4.5C14 4.8 13.8 5 13.5 5H11.5C11.2 5 11 4.8 11 4.5V2.5ZM8 5C9.7 5 11 6.3 11 8C11 9.7 9.7 11 8 11C6.3 11 5 9.7 5 8C5 6.3 6.3 5 8 5ZM14 13.5C14 13.8 13.8 14 13.5 14H2.5C2.2 14 2 13.8 2 13.5V7H3.09998C2.99998 7.3 3 7.7 3 8C3 10.8 5.2 13 8 13C10.8 13 13 10.8 13 8C13 7.7 13 7.3 12.9 7H14V13.5Z" fill="white"/>
</svg>
