<svg width="16" height="16" viewBox="0 0 16 16" fill="none" xmlns="http://www.w3.org/2000/svg">
<path d="M13.6 2.3C12.1 0.8 10.2 0 8 0C3.6 0 0.0999756 3.6 0.0999756 7.9C0.0999756 9.3 0.500012 10.7 1.20001 11.9L0 16L4.20001 14.9C5.40001 15.5 6.7 15.9 8 15.9C12.4 15.9 15.9 12.3 15.9 8C16 5.8 15.1 3.8 13.6 2.3ZM8 14.5C6.8 14.5 5.69998 14.2 4.59998 13.6L4.40002 13.5L1.90002 14.2L2.59998 11.8L2.40002 11.5C1.70002 10.5 1.40002 9.2 1.40002 8C1.40002 4.4 4.4 1.4 8 1.4C9.8 1.4 11.4 2.1 12.7 3.3C13.9 4.5 14.6 6.2 14.6 8C14.6 11.6 11.7 14.5 8 14.5ZM11.6 9.6C11.4 9.5 10.4 9 10.2 9C10 8.9 9.89999 8.9 9.79999 9.1C9.69999 9.3 9.30001 9.7 9.20001 9.9C9.10001 10 8.99999 10.1 8.79999 10C8.59999 9.9 8.00001 9.7 7.20001 9C6.60001 8.5 6.19998 7.8 6.09998 7.6C5.99998 7.4 6.10001 7.3 6.20001 7.2C6.30001 7.1 6.4 7 6.5 6.9C6.6 6.8 6.60001 6.7 6.70001 6.6C6.80001 6.5 6.70001 6.4 6.70001 6.3C6.70001 6.2 6.29998 5.2 6.09998 4.8C5.89998 4.4 5.80001 4.5 5.70001 4.5C5.60001 4.5 5.49999 4.5 5.29999 4.5C5.19999 4.5 4.99999 4.5 4.79999 4.7C4.59999 4.9 4.09998 5.4 4.09998 6.4C4.09998 7.4 4.80002 8.3 4.90002 8.4C5.00002 8.5 6.29999 10.5 8.29999 11.4C8.79999 11.6 9.10002 11.7 9.40002 11.8C9.90002 12 10.3 11.9 10.6 11.9C11 11.8 11.8 11.4 11.9 11C12.1 10.5 12.1 10.1 12 10.1C12 9.7 11.8 9.7 11.6 9.6Z" fill="white"/>
</svg>
